HIERARCHY
ROOT Hips
{
	OFFSET 0.000000 0.000000 0.000000 
	CHANNELS 6 Xposition Yposition Zposition Yrotation Zrotation Xrotation 
	JOINT Lumbar
	{
		OFFSET 0.000000 0.000000 0.000000 
		CHANNELS 3 Zrotation Xrotation Yrotation
		JOINT Neck
		{
			OFFSET 0.000000 0.445665 0.000000 
			CHANNELS 3 Zrotation Xrotation Yrotation
			End Site
			{
				OFFSET 0.000000 0.227535 0.000000 
			}
		}
		JOINT RightShoulder
		{
			OFFSET 0.019635 0.377685 0.194865 
			CHANNELS 3 Zrotation Xrotation Yrotation
			JOINT RightElbow
			{
				OFFSET 0.000000 -0.243375 0.000000 
				CHANNELS 2 Zrotation Yrotation
				JOINT RightWrist
				{
					OFFSET 0.000000 -0.264825 0.000000 
					CHANNELS 2 Zrotation Xrotation
					End Site
					{
						OFFSET 0.006600 -0.176220 0.000990 
					}
				}
			}
		}
		JOINT LeftShoulder
		{
			OFFSET 0.019635 0.377685 -0.194865 
			CHANNELS 3 Zrotation Xrotation Yrotation
			JOINT LeftElbow
			{
				OFFSET 0.000000 -0.243375 0.000000 
				CHANNELS 2 Zrotation Yrotation
				JOINT LeftWrist
				{
					OFFSET 0.000000 -0.264825 0.000000 
					CHANNELS 2 Zrotation Xrotation
					End Site
					{
						OFFSET 0.006600 -0.176220 -0.000990 
					}
				}
			}
		}
	}
	JOINT RightHip
	{
		OFFSET 0.052140 -0.069960 0.075570 
		CHANNELS 3 Zrotation Xrotation Yrotation
		JOINT RightKnee
		{
			OFFSET 0.000000 -0.402270 0.000000 
			CHANNELS 1 Zrotation
			JOINT RightAnkle
			{
				OFFSET 0.000000 -0.404085 0.000000 
				CHANNELS 3 Zrotation Xrotation Yrotation
				End Site
				{
					OFFSET 0.204105 -0.089430 0.008415 
				}
			}
		}
	}
	JOINT LeftHip
	{
		OFFSET 0.052140 -0.069960 -0.075570 
		CHANNELS 3 Zrotation Xrotation Yrotation
		JOINT LeftKnee
		{
			OFFSET 0.000000 -0.402270 0.000000 
			CHANNELS 1 Zrotation
			JOINT LeftAnkle
			{
				OFFSET 0.000000 -0.404085 0.000000 
				CHANNELS 3 Zrotation Xrotation Yrotation
				End Site
				{
					OFFSET 0.204105 -0.089430 -0.008415 
				}
			}
		}
	}
}
MOTION
Frames: 25
Frame Time: 0.02
-0.14266 0.93374 -0.25205 751.694 0 -11.65574 -7.4393 14.91737 -7.19943 -55.66561 4.39472 7.01619 49.29444 -25.53891 -32.44013 8.41456 80.9526 -0.85157 -4.16857 55.81526 15.68217 -25.49108 18.4376 -99.08078 -11.04113 8.90508 13.05303 4.70944 14.51942 -24.88475 -10.36294 -1.73403 -13.39939 1.05222 2.33091 -0.85549 -24.11253 4.1717 5.04197 11.61709
-0.13911 0.93409 -0.25396 753.3655 0 -11.41019 -8.05388 15.41729 -6.86674 -55.7385 4.69699 7.8411 49.51352 -26.67576 -32.16047 8.50926 80.85365 -0.89722 -4.24132 55.19005 14.61079 -25.35052 17.68119 -97.20144 -10.17755 8.65813 13.13275 4.53676 15.22455 -24.71021 -10.43946 -1.74517 -13.34561 0.77541 2.27047 -1.5861 -23.95774 4.01846 4.86417 10.84557
-0.1353 0.93473 -0.25557 755.0308 0 -11.13008 -8.70958 15.92247 -6.50469 -55.75962 5.08079 8.82275 49.7021 -28.02525 -31.66298 8.63823 80.71583 -0.9494 -4.33513 54.47688 13.41971 -25.01942 16.80252 -95.05133 -9.19771 8.339 13.13204 4.34248 15.97401 -24.35391 -10.55218 -1.75793 -13.25171 0.45757 2.23024 -2.2424 -23.6988 3.7957 4.62371 9.99497
-0.13164 0.93523 -0.25726 756.70572 0 -10.85985 -9.35517 16.42838 -6.16 -55.78131 5.42913 9.73246 49.88822 -29.28434 -31.2669 8.75125 80.60019 -0.99981 -4.41854 53.79061 12.28869 -24.76511 15.98298 -93.08213 -8.28995 8.04532 13.16633 4.15291 16.6916 -24.07631 -10.64991 -1.76871 -13.16383 0.16893 2.1776 -2.93475 -23.49908 3.60374 4.40971 9.1761
-0.12792 0.93579 -0.25916 758.35855 0 -10.61357 -9.97074 16.92298 -5.80181 -55.88458 5.77616 10.65197 50.13054 -30.52751 -30.8589 8.8664 80.46595 -1.04593 -4.5054 53.14005 11.12397 -24.54191 15.14378 -90.86347 -7.29992 7.77968 13.2075 3.98278 17.4632 -23.8138 -10.74187 -1.78475 -13.12361 -0.16308 2.13749 -3.62037 -23.24914 3.41245 4.20382 8.37176
-0.12422 0.93628 -0.26056 760.05396 0 -10.30895 -10.65487 17.44205 -5.4642 -55.81321 6.14227 11.58414 50.2557 -31.84854 -30.42692 8.98459 80.36117 -1.10195 -4.59002 52.40368 10.0069 -24.21442 14.3194 -89.0997 -6.45425 7.44103 13.21374 3.76794 18.12886 -23.47964 -10.85493 -1.79009 -12.97945 -0.41576 2.07726 -4.29954 -23.07731 3.20453 3.96589 7.51783
-0.12078 0.93656 -0.26068 761.86023 0 -9.85744 -11.53512 18.02346 -5.18018 -55.24979 6.54908 12.52638 50.03656 -33.34754 -29.95612 9.10905 80.34513 -1.18739 -4.66455 51.4261 9.03129 -23.62557 13.55309 -88.68929 -6.03337 6.90116 13.16099 3.43357 18.51783 -22.96344 -11.00784 -1.76732 -12.51639 -0.42903 1.94675 -4.9995 -23.16908 2.96423 3.66061 6.56986
-0.11733 0.93676 -0.2603 763.70926 0 -9.34743 -12.4792 18.63017 -4.91859 -54.5174 6.96765 13.46884 49.707 -34.90853 -29.47488 9.23456 80.36007 -1.28178 -4.73613 50.37157 8.11697 -22.94482 12.80966 -88.74208 -5.76246 6.2937 13.07337 3.05545 18.79288 -22.38752 -11.18121 -1.73359 -11.95779 -0.36274 1.79686 -5.69115 -23.33955 2.71026 3.3247 5.57207
-0.11377 0.93697 -0.26013 765.54409 0 -8.8607 -13.38223 19.22701 -4.65371 -53.88047 7.37817 14.4066 49.44834 -36.43651 -29.01339 9.35508 80.36248 -1.36971 -4.808 49.37282 7.18263 -22.31843 12.06343 -88.56267 -5.42437 5.72876 12.98935 2.69857 19.10299 -21.85636 -11.35277 -1.7035 -11.47046 -0.34001 1.66263 -6.37366 -23.4591 2.46562 2.99866 4.58112
-0.11067 0.93727 -0.26001 767.36006 0 -8.38699 -14.3373 19.81542 -4.36125 -53.16727 7.81339 15.38527 49.10215 -38.01319 -28.47491 9.49449 80.35823 -1.46824 -4.88408 48.28658 6.19237 -21.62559 11.27708 -88.46226 -5.0776 5.1116 12.95145 2.33532 19.48739 -21.2406 -11.49871 -1.67841 -10.86466 -0.28853 1.50132 -7.10994 -23.63739 2.20672 2.68592 3.64989
-0.10661 0.93738 -0.25967 769.2214 0 -7.87235 -15.199 20.42956 -4.12879 -52.56776 8.18591 16.25673 48.91103 -39.4744 -28.10472 9.59605 80.37418 -1.5464 -4.95163 47.36079 5.358 -21.05996 10.58601 -88.31464 -4.78667 4.5879 12.81374 1.97506 19.68673 -20.79413 -11.69647 -1.64117 -10.48276 -0.27613 1.39014 -7.73096 -23.71537 1.97345 2.34103 2.58864
-0.09987 0.93699 -0.25886 771.23282 0 -7.26263 -15.7824 21.08833 -4.08359 -52.37459 8.4935 17.00417 49.18716 -40.82447 -28.13613 9.57777 80.45268 -1.56883 -4.98562 46.93844 4.7393 -20.79903 10.11368 -87.89168 -4.60832 4.34158 12.3785 1.63524 19.42514 -20.78666 -12.08359 -1.56559 -10.74824 -0.40217 1.43435 -8.0566 -23.48086 1.82947 1.89815 1.13719
-0.09216 0.93644 -0.25783 773.28195 0 -6.61337 -16.26987 21.77522 -4.09313 -52.2931 8.71695 17.61217 49.62032 -42.0151 -28.34909 9.52372 80.54861 -1.56995 -5.0128 46.67293 4.31208 -20.68236 9.74465 -87.41183 -4.48235 4.19196 11.8494 1.29977 18.97671 -20.95914 -12.51289 -1.47952 -11.24112 -0.56769 1.52743 -8.26401 -23.14649 1.70912 1.42749 -0.43469
-0.08489 0.93598 -0.2569 775.29056 0 -5.97987 -16.80473 22.4633 -4.05995 -52.12643 8.90497 18.16859 49.97487 -43.12941 -28.52504 9.49608 80.62654 -1.57896 -5.05031 46.30893 3.93042 -20.54698 9.35394 -86.98104 -4.33646 3.99603 11.38461 0.96141 18.59926 -21.08026 -12.88847 -1.40321 -11.62672 -0.70806 1.58982 -8.511 -22.86873 1.56861 0.98074 -1.92287
-0.07761 0.93541 -0.25597 777.39895 0 -5.35313 -17.32758 23.09593 -4.10271 -52.09639 9.40227 19.20468 50.35933 -44.86751 -28.51469 9.42673 80.74541 -1.59572 -5.05811 46.05725 2.99614 -20.21388 8.85589 -86.47109 -4.18001 3.8058 10.83014 0.6253 18.27736 -21.07668 -13.40864 -1.30561 -12.02694 -0.87741 1.68678 -8.81334 -22.54529 1.46807 0.48496 -3.53603
-0.07013 0.93505 -0.25499 779.30848 0 -4.70434 -17.84962 23.84708 -4.00023 -51.81398 9.23801 19.21576 50.71621 -45.27596 -28.92778 9.43436 80.78609 -1.59134 -5.12505 45.60968 3.25123 -20.32379 8.60741 -86.10295 -4.05518 3.62989 10.43686 0.2862 17.796 -21.36894 -13.63992 -1.24982 -12.45025 -0.99519 1.7243 -8.97753 -22.2935 1.28916 0.08545 -4.91569
-0.06244 0.93525 -0.25395 780.65587 0 -3.99891 -18.41036 24.94618 -3.48159 -50.77715 7.24601 16.37125 50.99174 -41.98376 -30.53419 9.67541 80.57742 -1.53227 -5.36719 44.58644 6.79359 -21.65822 9.00799 -86.17062 -4.013 3.45084 10.54439 -0.06319 16.92552 -22.49878 -13.04109 -1.31372 -12.89726 -0.97423 1.57915 -8.74435 -22.2533 0.89584 -0.04392 -5.63014
-0.05459 0.93568 -0.25287 781.80331 0 -3.27385 -18.96934 26.15777 -2.81547 -49.48826 4.59718 12.51379 51.2272 -37.37486 -32.5479 9.99309 80.29437 -1.45296 -5.66735 43.36139 11.5126 -23.42612 9.65862 -86.37608 -3.99934 3.28706 10.81147 -0.41568 15.89915 -23.90854 -12.15413 -1.41975 -13.35734 -0.89736 1.37349 -8.38387 -22.29039 0.42128 -0.07478 -6.10344
-0.04676 0.93603 -0.25181 783.04332 0 -2.56182 -19.51819 27.30036 -2.21744 -48.33635 2.2605 9.15545 51.46135 -33.4085 -34.33019 10.26749 80.06482 -1.38387 -5.93408 42.22551 15.66512 -24.97345 10.20461 -86.49491 -3.96551 3.12877 10.98417 -0.76546 14.94286 -25.14782 -11.41338 -1.50547 -13.80161 -0.83843 1.20037 -8.11209 -22.29854 -0.02092 -0.14901 -6.6811
-0.03911 0.93626 -0.25074 784.27348 0 -1.83157 -20.11264 28.52167 -1.61534 -47.09645 -0.1453 5.61727 51.78841 -29.23549 -36.31389 10.57556 79.75432 -1.30961 -6.22978 41.10167 19.97523 -26.62962 10.71706 -86.709 -3.96083 2.92019 11.24576 -1.1192 13.98887 -26.57532 -10.60944 -1.59586 -14.29505 -0.81463 1.009 -7.70909 -22.27661 -0.44237 -0.23031 -7.28542
-0.03107 0.93681 -0.24968 785.48119 0 -1.13444 -20.60949 29.60255 -0.98782 -45.97486 -2.55126 2.22908 51.90403 -25.20075 -37.97303 10.83315 79.59257 -1.24174 -6.47975 39.90795 24.21297 -28.15472 11.35639 -86.76361 -3.90552 2.82014 11.3615 -1.46728 12.9884 -27.6758 -9.86843 -1.68651 -14.68671 -0.70105 0.83894 -7.54677 -22.33766 -0.92747 -0.27288 -7.77493
-0.02187 0.9382 -0.24868 786.63254 0 -0.54022 -20.86643 30.29242 -0.31042 -45.27419 -4.89036 -0.61903 51.49979 -21.71005 -38.63146 10.92421 79.87648 -1.19525 -6.58283 38.52549 28.14486 -29.25844 12.29325 -86.30021 -3.66917 3.0037 11.03431 -1.78296 11.96044 -27.79587 -9.36917 -1.76906 -14.7888 -0.37768 0.7576 -8.11133 -22.6022 -1.56201 -0.23454 -8.00899
-0.01231 0.93991 -0.24771 787.77606 0 0.0208 -21.0199 30.83274 0.3846 -44.69552 -7.19006 -3.25871 50.87359 -18.43309 -38.95004 10.96358 80.30949 -1.15636 -6.63914 37.08713 31.93001 -30.20635 13.34719 -85.68265 -3.38738 3.29775 10.55548 -2.09552 10.88089 -27.57769 -8.94366 -1.85016 -14.78778 0.03862 0.69716 -8.91491 -22.94837 -2.25951 -0.16007 -8.13451
-0.00299 0.94149 -0.24673 788.95141 0 0.60147 -21.20252 31.42507 1.06177 -44.03803 -9.44492 -5.91193 50.3123 -15.16583 -39.42539 11.03227 80.66314 -1.11473 -6.72111 35.70341 35.66005 -31.19369 14.34139 -85.16138 -3.14807 3.54881 10.14739 -2.42039 9.7841 -27.5196 -8.48553 -1.93104 -14.83641 0.42885 0.61654 -9.59222 -23.26328 -2.93205 -0.10083 -8.30777
0.00669 0.94303 -0.24571 790.00057 0 1.16451 -21.46185 32.08737 1.78651 -43.46701 -11.98371 -8.93941 49.90017 -11.40766 -39.90178 11.07892 81.06302 -1.06878 -6.78645 34.19006 39.93883 -32.32673 15.37155 -84.52333 -2.81605 3.77001 9.73734 -2.70065 8.85124 -27.44549 -8.01265 -2.01723 -14.8742 0.75368 0.57731 -10.34922 -23.56009 -3.59043 -0.04344 -8.48043
